<?xml version="1.0" encoding="utf-8"?>
<!-- Generator: Adobe Illustrator 16.0.0, SVG Export Plug-In . SVG Version: 6.00 Build 0)  -->
<!DOCTYPE svg PUBLIC "-//W3C//DTD SVG 1.1//EN" "http://www.w3.org/Graphics/SVG/1.1/DTD/svg11.dtd">
<svg version="1.1" id="Layer_1" xmlns="http://www.w3.org/2000/svg" xmlns:xlink="http://www.w3.org/1999/xlink" x="0px" y="0px"
	 width="1899.9px" height="491.8px" viewBox="0 0 1899.9 491.8" enable-background="new 0 0 1899.9 491.8" xml:space="preserve">
<g>
	<path fill="#4E98D3" d="M181.9,314c-9.9,4.9-21.5,7.801-30.9,7.801c-21.2,0-33.399-13.4-33.399-36.7v-114h74.1v-59.2h-73.5V36.1
		l-68.4,7.3V112H0v59.2h49.8v114c0,33,9,58.399,26.9,75.6c15.7,15.1,38,23,64.9,23c1.699,0,3.5,0,5.199-0.1
		c20-0.5,35.9-3.801,54.601-11.301l1.399-0.6l-19.1-58.6L181.9,314z"/>
	<path fill="#4E98D3" d="M422.6,145.5c-15.9-24.4-49.1-40.6-83.9-40.6h-1.3c-40.4,0-76.2,13.4-100.7,37.7
		c-25,24.8-38.2,60.4-38.2,103c0,44.399,13.3,81.101,38.601,106.101c24.2,24,58.3,36.699,98.7,36.699h1.3
		c31-0.6,69.6-15.9,85.7-44.1l3,36h64.5v-269H424.7L422.6,145.5z M421.301,245.9c0,20.9-6.8,40.4-19.2,54.801
		C388.2,317,368.301,325.5,344.6,325.5c-21.5,0-41.101-7.5-55.101-21.199c-14.8-14.5-22.7-34.801-22.7-58.8
		c0-23.9,7.801-44.1,22.7-58.5c13.9-13.5,33.5-20.9,55.101-20.9c23.7,0,43.6,8.6,57.5,24.8C414.501,205.5,421.301,225,421.301,245.9
		z"/>
	<rect x="523.9" fill="#4E98D3" width="67.8" height="380.4"/>
	<polygon fill="#4E98D3" points="862.6,117.3 863.001,116.8 863.001,111.4 782.301,111.4 694.301,216.4 694.301,0 625.9,0 
		625.9,380.4 694.301,380.4 694.301,261.8 796.9,380.4 878.1,380.4 878.1,373.9 754.7,238 	"/>
	<path fill="#4E98D3" d="M1668.4,106c-49.899,0-91.5,21.7-116.2,59.9c-17.199-41.3-47.5-76.9-87.1-100.5l-1.4-0.8l-20.3,35.2
		l1.4,0.8c51.1,30.6,82.899,86.3,82.899,145.4c0,59.201-31.8,115-83.1,145.5l-1.4,0.801l20.301,35.199l1.399-0.799
		c39.5-23.4,69.8-58.9,87.101-100c0.1,0.1,0.1,0.199,0.199,0.299c24.801,38.201,66.301,59.301,116.801,59.301
		c41.699,0,77.199-14.2,102.8-41.1c24.1-25.301,37.399-60.5,37.399-99.101c0-38.2-13.6-73.3-38.199-98.9
		C1744.9,120.3,1709.4,106,1668.4,106z M1740.2,246.2c0,20.7-6.399,39.799-17.899,53.7c-12.801,15.4-31.301,23.6-53.4,23.6
		s-40.5-8.1-53.4-23.6c-11.6-13.9-17.899-32.9-17.899-53.7c0-20.5,6.399-39.6,18.1-53.7c13-15.7,31.4-24,53.2-24
		C1713.501,168.4,1740.2,207.9,1740.2,246.2z"/>
	<rect x="1832.001" fill="#4E98D3" width="67.8" height="380.4"/>
	<path fill="#4E98D3" d="M1442.4,246.1c0-46.4-37.8-84.2-84.2-84.2c-46.399,0-84.199,37.8-84.199,84.2
		c0,46.399,37.8,84.2,84.199,84.2C1404.6,330.3,1442.4,292.5,1442.4,246.1z"/>
	<path fill="#4E98D3" d="M1188.7,246.1c0-59.1,31.801-114.8,82.9-145.4l1.4-0.8L1252.7,64.7l-1.399,0.8
		c-40.2,23.9-70.801,60.3-87.9,102.3c-24.4-39.8-66.4-62.4-116.7-62.4c-27.1,0-63.5,10.8-85.7,40.7l-4.1-34.8h-63.899v380.401H961.4
		V351.6c13.2,17.601,42.4,35.3,87.5,35.3c49.3,0,89.601-20.699,113.4-58.3c0.1-0.101,0.7-1.101,1.7-2.7
		c17.199,41.5,47.6,77.301,87.399,100.9l1.4,0.799l20.3-35.199l-1.4-0.8C1220.6,361.1,1188.7,305.3,1188.7,246.1z M1116.301,246.2
		c0,42.5-32,74.5-74.5,74.5s-74.5-32-74.5-74.5c0-43.9,30.6-74.5,74.5-74.5C1085.7,171.6,1116.301,202.3,1116.301,246.2z"/>
	<path fill="#4E98D3" d="M1252.001,246.1c0-37.3,19.199-71.2,51.199-90.7l1.4-0.8l-20.3-35.2l-1.4,0.9
		c-44.8,26.9-71.6,74-71.6,125.9c0,51.2,27.5,99.5,71.8,126l1.4,0.799l20.3-35.199l-1.4-0.801
		C1271.2,317.4,1252.001,283.5,1252.001,246.1z"/>
	<path fill="#4E98D3" d="M1505.1,246.1c0-51.9-26.8-99-71.6-125.9l-1.4-0.9l-20.3,35.2l1.399,0.8c32.101,19.5,51.2,53.4,51.2,90.7
		c0,37.4-19.2,71.3-51.4,90.8l-1.399,0.8l20.3,35.2l1.4-0.801C1477.6,345.6,1505.1,297.3,1505.1,246.1z"/>
</g>
</svg>
